<svg width="761" height="43" viewBox="0 0 761 43" fill="none" xmlns="http://www.w3.org/2000/svg">
<path fill-rule="evenodd" clip-rule="evenodd" d="M562 2.12987V1.57495H580.539C580.987 6.88648 581.921 13.3529 582.822 19.5886C582.869 19.918 582.917 20.2468 582.964 20.5747L582.493 20.6421L580 9.12095C579.979 9.02752 579.958 8.9354 579.938 8.84457C578.651 3.10573 578.518 2.5119 565.784 2.11395C565.312 4.9437 565.11 10.8053 565.11 21.6527C565.11 21.91 565.11 22.1638 565.11 22.414C565.109 40.1828 565.109 40.2585 569.826 40.9893L573.532 41.5283V42H562V39.4553C563.089 37.639 563.089 33.3114 563.089 21.9896C563.089 10.8053 563.089 4.9437 562.55 2.11395C562.364 2.11917 562.181 2.12447 562 2.12987ZM642.015 2.45083C639.522 2.72033 639.185 3.0572 639.185 19.5641C639.185 22.0111 639.231 23.7182 639.269 25.1325C639.297 26.1325 639.32 26.9861 639.32 27.8512C639.32 36.2057 635.21 42.7411 625.44 42.7411C614.256 42.7411 611.292 37.4185 611.292 30.0072C611.292 29.1231 611.321 27.8692 611.353 26.5365C611.388 25.0254 611.426 23.4132 611.426 22.1243C611.426 21.7947 611.426 21.4707 611.426 21.1522C611.428 3.3125 611.428 2.91418 607.721 2.45083L603.88 1.9792L603.948 1.57495H622.139V1.9792L616.479 2.45083C613.582 2.65295 613.38 3.3267 613.38 27.5817C613.38 37.4858 616.749 41.0567 627.259 41.0567C635.614 41.0567 637.972 37.6206 637.972 26.4363C637.972 26.0238 637.972 25.6185 637.972 25.2203C637.973 3.30753 637.973 2.78169 634.334 2.45083L629.348 1.9792V1.57495H646.461V1.9792L642.015 2.45083ZM678.4 20.0357C681.836 20.3726 684.531 20.44 688.237 20.44C695.446 20.44 698.477 16.8691 698.477 11.4117C698.477 5.34795 694.368 2.18133 686.35 2.18133C683.79 2.18133 681.229 2.45083 678.871 3.0572C678.602 4.60683 678.4 8.04295 678.4 20.0357ZM678.4 20.6421V21.4506C678.4 40.1135 678.535 40.4503 681.364 40.7872L687.495 41.5283V42H668.496V41.5283L672.942 40.922C676.311 40.5177 676.379 40.2482 676.379 22.1243C676.379 2.98982 676.379 2.92245 672.605 2.45083L668.293 1.9792V1.57495H687.091C696.524 1.57495 700.566 4.87633 700.566 9.7947C700.566 15.3868 696.119 20.3726 689.449 21.6527C696.052 33.6455 702.251 39.9113 704.137 40.6525L706.562 41.5283V42H701.038C698.275 39.5745 693.222 32.5675 687.361 21.8548C686.956 21.9222 686.552 21.9222 686.148 21.9222C684.396 21.9222 681.162 21.6527 678.4 20.6421ZM759.836 26.2342H760.308C759.769 31.6916 759.297 37.3511 759.162 42H727.496V41.5283L732.078 40.922C735.312 40.5177 735.379 40.2482 735.379 22.1243C735.379 2.98982 735.379 2.92245 731.606 2.45083L727.294 1.9792V1.57495H758.084C758.354 6.22383 759.028 11.8833 759.701 17.3407H759.297L757.478 9.05358C756.13 2.98982 755.591 2.72033 738.074 2.18133C737.602 3.66358 737.4 5.95433 737.4 21.2485C749.326 21.2485 749.73 20.8442 750.134 17.1386L750.808 11.5465H751.145C751.077 16.3975 751.818 26.8406 752.357 31.5568H751.953L750.808 26.1668C749.865 21.9896 749.258 21.7201 737.4 21.7201C737.4 37.4185 737.602 39.844 738.074 41.3262C755.996 40.8546 757.141 40.5851 758.286 34.5213L759.836 26.2342Z" fill="black"/>
<path fill-rule="evenodd" clip-rule="evenodd" d="M562 1.57499H548.199C547.738 6.35153 546.786 12.062 545.847 17.6988C545.686 18.6613 545.526 19.6216 545.369 20.5747L545.773 20.6421L548.535 9.12099C549.928 3.21752 550.538 2.47302 562 2.12991V1.57499ZM562 39.4553V42H554.599V41.5284L558.574 40.9894C560.279 40.7349 561.34 40.5574 562 39.4553ZM13.688 2.51824C11.1951 2.72037 10.8582 3.39412 10.8582 21.4506C10.8582 37.4185 11.0603 39.7766 11.532 41.3262C27.0282 40.922 27.7693 40.3156 28.9147 34.454L31.1381 22.7981H31.5423C31.3338 24.8837 31.0865 27.0016 30.8424 29.0917C30.298 33.7539 29.7697 38.2785 29.7232 42H1.02145V41.5284L5.33345 40.9894C8.76958 40.5177 8.83695 40.383 8.83695 22.1244C8.83695 3.05725 8.76958 2.92249 5.06395 2.51824L0.751953 1.97924V1.57499H19.2801V1.97924L13.688 2.51824ZM73.2506 2.72037C61.46 2.72037 56.5416 8.51462 56.5416 19.0251C56.5416 32.3654 63.077 40.922 75.2045 40.922C85.9845 40.922 91.3745 33.5781 91.3745 20.9116C91.3745 9.05362 84.9739 2.72037 73.2506 2.72037ZM75.1371 0.901245C86.254 0.901245 93.8674 8.11037 93.8674 19.2946C93.8674 32.7022 85.0412 42.6737 72.6442 42.6737C61.7295 42.6737 54.3182 33.4434 54.3182 20.7095C54.3182 9.18837 63.0096 0.901245 75.1371 0.901245ZM128.22 2.18137C127.614 3.66362 127.412 5.95437 127.412 21.4506V21.9896C139.337 21.9896 139.674 21.6527 140.146 17.745L140.819 12.355H141.156C141.089 17.1386 141.83 27.6491 142.369 32.3654H141.965L140.819 26.908C139.876 22.7981 139.27 22.5286 127.412 22.5286C127.412 40.1809 127.412 40.6525 131.791 41.0567L137.99 41.5284V42H117.305V41.5284L121.281 40.9894C125.39 40.383 125.39 40.1135 125.39 22.1244C125.39 2.98987 125.39 2.92249 121.617 2.45087L117.305 1.97924V1.57499H148.096C148.365 6.22387 149.039 11.8834 149.713 17.3407H149.309L147.557 9.39049C146.142 2.92249 145.872 2.72037 128.22 2.18137ZM196.695 40.9894L200.4 41.5284V42H181.468V41.5284L185.443 40.9894C189.957 40.3156 189.957 40.1809 189.957 21.9896C189.957 10.8054 189.957 4.94375 189.418 2.114C177.426 2.45087 176.819 3.12462 175.404 9.12099L172.642 20.6421L172.238 20.5747C172.395 19.6217 172.555 18.6615 172.715 17.6992C173.655 12.0623 174.607 6.35164 175.067 1.57499H207.407C207.855 6.88618 208.789 13.3521 209.69 19.5874C209.738 19.9172 209.785 20.2464 209.833 20.5747L209.361 20.6421L206.868 9.12099C206.847 9.02756 206.827 8.93543 206.806 8.8446C205.52 3.10577 205.387 2.51195 192.652 2.114C192.181 4.94375 191.979 10.8054 191.979 21.6527L191.978 22.414C191.978 40.1829 191.978 40.2585 196.695 40.9894ZM273.442 2.18137C272.836 3.66362 272.634 5.95437 272.634 21.4506V21.9896C284.559 21.9896 284.896 21.6527 285.368 17.745L286.041 12.355H286.378C286.311 17.1386 287.052 27.6491 287.591 32.3654H287.187L286.041 26.908C285.098 22.7981 284.492 22.5286 272.634 22.5286C272.634 40.1809 272.634 40.6525 277.013 41.0567L283.212 41.5284V42H262.528V41.5284L266.503 40.9894C270.613 40.383 270.613 40.1135 270.613 22.1244C270.613 2.98987 270.613 2.92249 266.84 2.45087L262.528 1.97924V1.57499H293.318C293.587 6.22387 294.261 11.8834 294.935 17.3407H294.531L292.779 9.39049C291.364 2.92249 291.095 2.72037 273.442 2.18137ZM354.579 2.45087C352.086 2.72037 351.749 3.05725 351.749 19.5641C351.749 22.0111 351.795 23.7183 351.833 25.1325C351.86 26.1325 351.884 26.9861 351.884 27.8512C351.884 36.2057 347.774 42.7411 338.004 42.7411C326.82 42.7411 323.856 37.4185 323.856 30.0072C323.856 29.1232 323.885 27.8692 323.917 26.5366C323.952 25.0255 323.99 23.4132 323.99 22.1244L323.99 21.1522C323.992 3.31254 323.992 2.91422 320.285 2.45087L316.444 1.97924L316.512 1.57499H334.703V1.97924L329.043 2.45087C326.146 2.65299 325.944 3.32675 325.944 27.5817C325.944 37.4859 329.313 41.0567 339.823 41.0567C348.178 41.0567 350.536 37.6206 350.536 26.4364L350.536 25.2202C350.537 3.30757 350.537 2.78173 346.898 2.45087L341.912 1.97924V1.57499H359.025V1.97924L354.579 2.45087ZM390.964 20.0357C394.4 20.3726 397.095 20.44 400.8 20.44C408.01 20.44 411.041 16.8691 411.041 11.4117C411.041 5.34799 406.932 2.18137 398.914 2.18137C396.354 2.18137 393.793 2.45087 391.435 3.05725C391.166 4.60687 390.964 8.043 390.964 20.0357ZM390.964 20.6421V21.4506C390.964 40.1135 391.098 40.4504 393.928 40.7872L400.059 41.5284V42H381.06V41.5284L385.506 40.922C388.875 40.5177 388.942 40.2482 388.942 22.1244C388.942 2.98987 388.942 2.92249 385.169 2.45087L380.857 1.97924V1.57499H399.655C409.088 1.57499 413.13 4.87637 413.13 9.79475C413.13 15.3869 408.683 20.3726 402.013 21.6527C408.616 33.6455 414.814 39.9114 416.701 40.6525L419.126 41.5284V42H413.602C410.839 39.5745 405.786 32.5675 399.925 21.8549C399.52 21.9222 399.116 21.9222 398.712 21.9222C396.96 21.9222 393.726 21.6527 390.964 20.6421ZM476.375 42.6064L475.904 42.6737C469.84 33.4434 457.578 16.0606 450.166 6.02174C449.493 5.07849 448.886 4.40474 448.212 3.93312C448.265 7.82606 448.306 11.305 448.343 14.4144C448.633 39.0732 448.65 40.4881 452.12 40.7872L461.216 41.5284L461.148 42H439.319V41.5284L443.698 40.8546C447.098 40.3178 447.119 38.8304 447.453 14.2311C447.496 11.045 447.544 7.4712 447.606 3.46149C446.663 2.92249 445.517 2.65299 443.833 2.45087L439.319 1.97924V1.57499H450.975C456.971 11.4791 465.73 24.4151 475.634 36.8795C475.59 33.845 475.552 31.0832 475.518 28.5694C475.192 4.4598 475.175 3.16019 472.063 2.85512L462.968 1.97924L463.035 1.57499H482.506V1.97924L480.013 2.45087C476.443 3.25937 476.24 6.29124 476.24 36.8121C476.24 39.2376 476.24 40.922 476.375 42.6064ZM512.405 23.0424L512.405 22.1244L512.405 21.0955C512.406 3.24687 512.406 2.91501 508.901 2.51824L504.32 1.97924V1.57499H522.578V1.97924L517.458 2.51824C514.763 2.72037 514.426 3.25937 514.426 21.518V22.4511C514.425 40.1901 514.425 40.4595 518.266 40.9894L522.578 41.5284V42H504.32V41.5284L508.632 40.9894C512.406 40.5259 512.406 40.1925 512.405 23.0424Z" fill="#464E2E"/>
</svg>
